<mxfile modified="2024-06-21T00:01:10.454Z" host="Electron" agent="Mozilla/5.0 (Windows NT 10.0; Win64; x64) AppleWebKit/537.36 (KHTML, like Gecko) draw.io/24.0.4 Chrome/120.0.6099.109 Electron/28.1.0 Safari/537.36" etag="HIHegqc9t9D4TFAT50VJ" version="24.0.4" type="device">
  <diagram id="WI9T0HZ2pTsCkuznbFz-" name="Page-1">
    <mxGraphModel dx="1674" dy="836" grid="1" gridSize="10" guides="1" tooltips="1" connect="1" arrows="1" fold="1" page="1" pageScale="1" pageWidth="1169" pageHeight="827" math="0" shadow="0">
      <root>
        <mxCell id="0" />
        <mxCell id="1" parent="0" />
        <mxCell id="rXHElQir7ShtrGNsEum9-1" value="PC MUNICIPAL" style="outlineConnect=0;dashed=0;verticalLabelPosition=bottom;verticalAlign=top;align=center;html=1;shape=mxgraph.aws3.management_console;fillColor=#D2D3D3;gradientColor=none;" vertex="1" parent="1">
          <mxGeometry x="40" y="240" width="110" height="120" as="geometry" />
        </mxCell>
        <mxCell id="rXHElQir7ShtrGNsEum9-2" value="" style="aspect=fixed;sketch=0;html=1;dashed=0;whitespace=wrap;fillColor=#2875E2;strokeColor=#ffffff;points=[[0.005,0.63,0],[0.1,0.2,0],[0.9,0.2,0],[0.5,0,0],[0.995,0.63,0],[0.72,0.99,0],[0.5,1,0],[0.28,0.99,0]];shape=mxgraph.kubernetes.icon2;kubernetesLabel=1;prIcon=api" vertex="1" parent="1">
          <mxGeometry x="685.09" y="240" width="109.17" height="104.8" as="geometry" />
        </mxCell>
        <mxCell id="rXHElQir7ShtrGNsEum9-6" value="" style="swimlane;startSize=0;" vertex="1" parent="1">
          <mxGeometry x="320" y="200" width="200" height="200" as="geometry" />
        </mxCell>
        <mxCell id="rXHElQir7ShtrGNsEum9-7" value="FRONTEND" style="text;html=1;align=center;verticalAlign=middle;resizable=0;points=[];autosize=1;strokeColor=none;fillColor=none;" vertex="1" parent="rXHElQir7ShtrGNsEum9-6">
          <mxGeometry x="45" y="70" width="90" height="30" as="geometry" />
        </mxCell>
        <mxCell id="rXHElQir7ShtrGNsEum9-8" style="edgeStyle=orthogonalEdgeStyle;rounded=0;orthogonalLoop=1;jettySize=auto;html=1;exitX=1;exitY=0.25;exitDx=0;exitDy=0;exitPerimeter=0;entryX=-0.012;entryY=0.348;entryDx=0;entryDy=0;entryPerimeter=0;" edge="1" parent="1" source="rXHElQir7ShtrGNsEum9-1" target="rXHElQir7ShtrGNsEum9-6">
          <mxGeometry relative="1" as="geometry" />
        </mxCell>
        <mxCell id="rXHElQir7ShtrGNsEum9-19" value="Peticion" style="edgeLabel;html=1;align=center;verticalAlign=middle;resizable=0;points=[];" vertex="1" connectable="0" parent="rXHElQir7ShtrGNsEum9-8">
          <mxGeometry x="-0.3354" relative="1" as="geometry">
            <mxPoint as="offset" />
          </mxGeometry>
        </mxCell>
        <mxCell id="rXHElQir7ShtrGNsEum9-9" style="edgeStyle=orthogonalEdgeStyle;rounded=0;orthogonalLoop=1;jettySize=auto;html=1;entryX=0.008;entryY=0.569;entryDx=0;entryDy=0;entryPerimeter=0;" edge="1" parent="1" source="rXHElQir7ShtrGNsEum9-6" target="rXHElQir7ShtrGNsEum9-2">
          <mxGeometry relative="1" as="geometry" />
        </mxCell>
        <mxCell id="rXHElQir7ShtrGNsEum9-15" value="Peticion" style="edgeLabel;html=1;align=center;verticalAlign=middle;resizable=0;points=[];" vertex="1" connectable="0" parent="rXHElQir7ShtrGNsEum9-9">
          <mxGeometry x="-0.256" relative="1" as="geometry">
            <mxPoint as="offset" />
          </mxGeometry>
        </mxCell>
        <mxCell id="rXHElQir7ShtrGNsEum9-10" style="edgeStyle=orthogonalEdgeStyle;rounded=0;orthogonalLoop=1;jettySize=auto;html=1;exitX=0.1;exitY=0.2;exitDx=0;exitDy=0;exitPerimeter=0;entryX=1.008;entryY=0.307;entryDx=0;entryDy=0;entryPerimeter=0;" edge="1" parent="1" source="rXHElQir7ShtrGNsEum9-2" target="rXHElQir7ShtrGNsEum9-6">
          <mxGeometry relative="1" as="geometry" />
        </mxCell>
        <mxCell id="rXHElQir7ShtrGNsEum9-18" value="Respuesta" style="edgeLabel;html=1;align=center;verticalAlign=middle;resizable=0;points=[];" vertex="1" connectable="0" parent="rXHElQir7ShtrGNsEum9-10">
          <mxGeometry x="0.3708" relative="1" as="geometry">
            <mxPoint as="offset" />
          </mxGeometry>
        </mxCell>
        <mxCell id="rXHElQir7ShtrGNsEum9-11" style="edgeStyle=orthogonalEdgeStyle;rounded=0;orthogonalLoop=1;jettySize=auto;html=1;entryX=1;entryY=0.5;entryDx=0;entryDy=0;entryPerimeter=0;" edge="1" parent="1" source="rXHElQir7ShtrGNsEum9-6" target="rXHElQir7ShtrGNsEum9-1">
          <mxGeometry relative="1" as="geometry" />
        </mxCell>
        <mxCell id="rXHElQir7ShtrGNsEum9-20" value="Respuesta" style="edgeLabel;html=1;align=center;verticalAlign=middle;resizable=0;points=[];" vertex="1" connectable="0" parent="rXHElQir7ShtrGNsEum9-11">
          <mxGeometry x="0.0686" y="-3" relative="1" as="geometry">
            <mxPoint as="offset" />
          </mxGeometry>
        </mxCell>
        <mxCell id="rXHElQir7ShtrGNsEum9-12" value="" style="image;aspect=fixed;html=1;points=[];align=center;fontSize=12;image=img/lib/azure2/databases/Azure_Database_PostgreSQL_Server.svg;" vertex="1" parent="1">
          <mxGeometry x="1060" y="253" width="48" height="64" as="geometry" />
        </mxCell>
        <mxCell id="rXHElQir7ShtrGNsEum9-13" style="edgeStyle=orthogonalEdgeStyle;rounded=0;orthogonalLoop=1;jettySize=auto;html=1;exitX=0.9;exitY=0.2;exitDx=0;exitDy=0;exitPerimeter=0;entryX=0.017;entryY=0.13;entryDx=0;entryDy=0;entryPerimeter=0;" edge="1" parent="1" source="rXHElQir7ShtrGNsEum9-2" target="rXHElQir7ShtrGNsEum9-12">
          <mxGeometry relative="1" as="geometry" />
        </mxCell>
        <mxCell id="rXHElQir7ShtrGNsEum9-21" value="Peticion" style="edgeLabel;html=1;align=center;verticalAlign=middle;resizable=0;points=[];" vertex="1" connectable="0" parent="rXHElQir7ShtrGNsEum9-13">
          <mxGeometry x="-0.3338" y="3" relative="1" as="geometry">
            <mxPoint x="3" as="offset" />
          </mxGeometry>
        </mxCell>
        <mxCell id="rXHElQir7ShtrGNsEum9-14" style="edgeStyle=orthogonalEdgeStyle;rounded=0;orthogonalLoop=1;jettySize=auto;html=1;entryX=0.947;entryY=0.434;entryDx=0;entryDy=0;entryPerimeter=0;" edge="1" parent="1" source="rXHElQir7ShtrGNsEum9-12" target="rXHElQir7ShtrGNsEum9-2">
          <mxGeometry relative="1" as="geometry" />
        </mxCell>
        <mxCell id="rXHElQir7ShtrGNsEum9-22" value="Respuesta" style="edgeLabel;html=1;align=center;verticalAlign=middle;resizable=0;points=[];" vertex="1" connectable="0" parent="rXHElQir7ShtrGNsEum9-14">
          <mxGeometry x="0.2152" y="2" relative="1" as="geometry">
            <mxPoint as="offset" />
          </mxGeometry>
        </mxCell>
        <mxCell id="rXHElQir7ShtrGNsEum9-23" value="" style="verticalLabelPosition=bottom;html=1;verticalAlign=top;align=center;strokeColor=none;fillColor=#00BEF2;shape=mxgraph.azure.azure_active_directory;" vertex="1" parent="1">
          <mxGeometry x="685.09" width="99" height="90" as="geometry" />
        </mxCell>
        <mxCell id="rXHElQir7ShtrGNsEum9-26" style="edgeStyle=orthogonalEdgeStyle;rounded=0;orthogonalLoop=1;jettySize=auto;html=1;entryX=0.25;entryY=0.79;entryDx=0;entryDy=0;entryPerimeter=0;exitX=0.238;exitY=0.162;exitDx=0;exitDy=0;exitPerimeter=0;" edge="1" parent="1" source="rXHElQir7ShtrGNsEum9-2" target="rXHElQir7ShtrGNsEum9-23">
          <mxGeometry relative="1" as="geometry" />
        </mxCell>
        <mxCell id="rXHElQir7ShtrGNsEum9-28" value="Autenticacion&lt;div&gt;ENTRA ID&lt;/div&gt;" style="edgeLabel;html=1;align=center;verticalAlign=middle;resizable=0;points=[];" vertex="1" connectable="0" parent="rXHElQir7ShtrGNsEum9-26">
          <mxGeometry x="0.0287" y="-1" relative="1" as="geometry">
            <mxPoint y="8" as="offset" />
          </mxGeometry>
        </mxCell>
        <mxCell id="rXHElQir7ShtrGNsEum9-27" style="edgeStyle=orthogonalEdgeStyle;rounded=0;orthogonalLoop=1;jettySize=auto;html=1;exitX=0.75;exitY=0.79;exitDx=0;exitDy=0;exitPerimeter=0;entryX=0.678;entryY=0.095;entryDx=0;entryDy=0;entryPerimeter=0;" edge="1" parent="1" source="rXHElQir7ShtrGNsEum9-23" target="rXHElQir7ShtrGNsEum9-2">
          <mxGeometry relative="1" as="geometry" />
        </mxCell>
        <mxCell id="rXHElQir7ShtrGNsEum9-29" value="RESPUESTA&amp;nbsp;&lt;br&gt;ENTRA ID" style="edgeLabel;html=1;align=center;verticalAlign=middle;resizable=0;points=[];" vertex="1" connectable="0" parent="rXHElQir7ShtrGNsEum9-27">
          <mxGeometry x="0.1904" y="1" relative="1" as="geometry">
            <mxPoint y="-54" as="offset" />
          </mxGeometry>
        </mxCell>
      </root>
    </mxGraphModel>
  </diagram>
</mxfile>
